<svg width="24" height="24" viewBox="0 0 24 24" fill="none" xmlns="http://www.w3.org/2000/svg">
<path fill-rule="evenodd" clip-rule="evenodd" d="M13.2786 6.68896L12.5781 8.88745L12.4738 9.21485L13.1178 10.057L13.8018 10.9516L13.9158 11.1006L13.7551 11.2448L13.5894 11.3933L11.3923 13.3637L11.6917 11.4846L11.7528 11.1008L11.4141 10.6577L11.1088 10.2586L10.3559 9.27392L10.3108 9.21495L11.2071 6.40162L11.0294 6.22165C9.42137 4.59302 6.81415 4.59303 5.20606 6.22165C3.59798 7.85027 3.59798 10.4908 5.20606 12.1194L6.17641 13.1022L6.17636 13.1022L11.9998 19L11.9998 18.9999L12 19.0001L17.8234 13.1024L17.8232 13.1022L18.7937 12.1192C20.4018 10.4906 20.4018 7.85009 18.7937 6.22147C17.3797 4.78941 15.1932 4.61657 13.5927 5.70295L13.2786 6.68896Z" fill="white"/>
</svg>
