<svg width="24" height="24" viewBox="0 0 24 24" fill="none" xmlns="http://www.w3.org/2000/svg">
<path d="M2 6.40009C2 5.07456 3.07456 4 4.40009 4H19.5999C20.9254 4 22 5.07456 22 6.40009V8H2V6.40009Z" fill="#F9E1BB"/>
<path d="M22 19.5999C22 20.9254 20.9254 22 19.5999 22L4.40009 22C3.07455 22 2 20.9254 2 19.5999L2 8L22 8L22 19.5999Z" fill="#F7D7A5"/>
<rect x="6" y="2" width="2" height="4" rx="1" fill="white"/>
<rect x="16" y="2" width="2" height="4" rx="1" fill="white"/>
<path d="M6.817 12.3995C6.702 12.5758 6.564 12.6832 6.403 12.7215C6.24967 12.7598 6.10017 12.7483 5.9545 12.687C5.80883 12.6257 5.68617 12.526 5.5865 12.388C5.4945 12.2423 5.45617 12.0775 5.4715 11.8935C5.47917 11.7708 5.50983 11.6367 5.5635 11.491C5.61717 11.3453 5.68233 11.2073 5.759 11.077C5.84333 10.939 5.9315 10.8125 6.0235 10.6975C6.12317 10.5748 6.22283 10.4713 6.3225 10.387C6.5065 10.2413 6.7135 10.1148 6.9435 10.0075C7.18117 9.90017 7.4265 9.81967 7.6795 9.766C7.94017 9.71233 8.197 9.68933 8.45 9.697C8.71067 9.70467 8.95217 9.743 9.1745 9.812C9.78783 10.0037 10.2632 10.3065 10.6005 10.7205C10.9378 11.1345 11.1065 11.6712 11.1065 12.3305C11.1065 12.6448 11.0758 12.9285 11.0145 13.1815C10.9608 13.4268 10.8612 13.6645 10.7155 13.8945C10.5775 14.1245 10.3897 14.3583 10.152 14.596C9.922 14.8337 9.6345 15.0943 9.2895 15.378C9.1745 15.4777 9.05567 15.5773 8.933 15.677C8.81033 15.7767 8.68767 15.8763 8.565 15.976C8.52667 16.0067 8.45383 16.0527 8.3465 16.114C8.23917 16.1753 8.14333 16.2367 8.059 16.298C7.97467 16.3593 7.92483 16.4168 7.9095 16.4705C7.89417 16.5242 7.9555 16.5548 8.0935 16.5625C8.26217 16.5778 8.39633 16.5817 8.496 16.574C8.59567 16.5663 8.72983 16.5625 8.8985 16.5625C9.09783 16.5625 9.29333 16.5587 9.485 16.551C9.67667 16.5433 9.86833 16.5472 10.06 16.5625C10.1367 16.5702 10.221 16.574 10.313 16.574C10.405 16.5663 10.497 16.5663 10.589 16.574C10.681 16.574 10.7692 16.5855 10.8535 16.6085C10.9378 16.6238 11.0107 16.6583 11.072 16.712C11.1333 16.7657 11.1793 16.8385 11.21 16.9305C11.2407 17.0225 11.256 17.1222 11.256 17.2295C11.2637 17.3292 11.256 17.4288 11.233 17.5285C11.21 17.6205 11.1717 17.6933 11.118 17.747C11.0183 17.862 10.8957 17.9195 10.75 17.9195C10.6043 17.9118 10.4663 17.908 10.336 17.908H6.2075C6.13083 17.908 6.0465 17.9118 5.9545 17.9195C5.87017 17.9272 5.7935 17.9195 5.7245 17.8965C5.5865 17.8582 5.5175 17.7853 5.5175 17.678C5.52517 17.5707 5.529 17.4595 5.529 17.3445C5.529 17.1528 5.575 16.9765 5.667 16.8155C5.759 16.6468 5.874 16.4935 6.012 16.3555C6.15767 16.2098 6.311 16.0757 6.472 15.953C6.633 15.8303 6.7825 15.7115 6.9205 15.5965C7.11983 15.4202 7.3345 15.2438 7.5645 15.0675C7.7945 14.8912 8.013 14.7148 8.22 14.5385C8.48833 14.3162 8.7145 14.113 8.8985 13.929C9.09017 13.745 9.2435 13.5725 9.3585 13.4115C9.4735 13.2505 9.55783 13.0933 9.6115 12.94C9.66517 12.779 9.692 12.6103 9.692 12.434C9.692 12.043 9.57317 11.744 9.3355 11.537C9.09783 11.3223 8.795 11.215 8.427 11.215C8.15867 11.215 7.90567 11.2725 7.668 11.3875C7.438 11.5025 7.24633 11.6712 7.093 11.8935C7.047 11.9778 7.001 12.066 6.955 12.158C6.91667 12.2423 6.87067 12.3228 6.817 12.3995ZM13.3141 12.3995C13.1991 12.5758 13.0611 12.6832 12.9001 12.7215C12.7467 12.7598 12.5972 12.7483 12.4516 12.687C12.3059 12.6257 12.1832 12.526 12.0836 12.388C11.9916 12.2423 11.9532 12.0775 11.9686 11.8935C11.9762 11.7708 12.0069 11.6367 12.0606 11.491C12.1142 11.3453 12.1794 11.2073 12.2561 11.077C12.3404 10.939 12.4286 10.8125 12.5206 10.6975C12.6202 10.5748 12.7199 10.4713 12.8196 10.387C13.0036 10.2413 13.2106 10.1148 13.4406 10.0075C13.6782 9.90017 13.9236 9.81967 14.1766 9.766C14.4372 9.71233 14.6941 9.68933 14.9471 9.697C15.2077 9.70467 15.4492 9.743 15.6716 9.812C16.2849 10.0037 16.7602 10.3065 17.0976 10.7205C17.4349 11.1345 17.6036 11.6712 17.6036 12.3305C17.6036 12.6448 17.5729 12.9285 17.5116 13.1815C17.4579 13.4268 17.3582 13.6645 17.2126 13.8945C17.0746 14.1245 16.8867 14.3583 16.6491 14.596C16.4191 14.8337 16.1316 15.0943 15.7866 15.378C15.6716 15.4777 15.5527 15.5773 15.4301 15.677C15.3074 15.7767 15.1847 15.8763 15.0621 15.976C15.0237 16.0067 14.9509 16.0527 14.8436 16.114C14.7362 16.1753 14.6404 16.2367 14.5561 16.298C14.4717 16.3593 14.4219 16.4168 14.4066 16.4705C14.3912 16.5242 14.4526 16.5548 14.5906 16.5625C14.7592 16.5778 14.8934 16.5817 14.9931 16.574C15.0927 16.5663 15.2269 16.5625 15.3956 16.5625C15.5949 16.5625 15.7904 16.5587 15.9821 16.551C16.1737 16.5433 16.3654 16.5472 16.5571 16.5625C16.6337 16.5702 16.7181 16.574 16.8101 16.574C16.9021 16.5663 16.9941 16.5663 17.0861 16.574C17.1781 16.574 17.2662 16.5855 17.3506 16.6085C17.4349 16.6238 17.5077 16.6583 17.5691 16.712C17.6304 16.7657 17.6764 16.8385 17.7071 16.9305C17.7377 17.0225 17.7531 17.1222 17.7531 17.2295C17.7607 17.3292 17.7531 17.4288 17.7301 17.5285C17.7071 17.6205 17.6687 17.6933 17.6151 17.747C17.5154 17.862 17.3927 17.9195 17.2471 17.9195C17.1014 17.9118 16.9634 17.908 16.8331 17.908H12.7046C12.6279 17.908 12.5436 17.9118 12.4516 17.9195C12.3672 17.9272 12.2906 17.9195 12.2216 17.8965C12.0836 17.8582 12.0146 17.7853 12.0146 17.678C12.0222 17.5707 12.0261 17.4595 12.0261 17.3445C12.0261 17.1528 12.0721 16.9765 12.1641 16.8155C12.2561 16.6468 12.3711 16.4935 12.5091 16.3555C12.6547 16.2098 12.8081 16.0757 12.9691 15.953C13.1301 15.8303 13.2796 15.7115 13.4176 15.5965C13.6169 15.4202 13.8316 15.2438 14.0616 15.0675C14.2916 14.8912 14.5101 14.7148 14.7171 14.5385C14.9854 14.3162 15.2116 14.113 15.3956 13.929C15.5872 13.745 15.7406 13.5725 15.8556 13.4115C15.9706 13.2505 16.0549 13.0933 16.1086 12.94C16.1622 12.779 16.1891 12.6103 16.1891 12.434C16.1891 12.043 16.0702 11.744 15.8326 11.537C15.5949 11.3223 15.2921 11.215 14.9241 11.215C14.6557 11.215 14.4027 11.2725 14.1651 11.3875C13.9351 11.5025 13.7434 11.6712 13.5901 11.8935C13.5441 11.9778 13.4981 12.066 13.4521 12.158C13.4137 12.2423 13.3677 12.3228 13.3141 12.3995Z" fill="#F29707"/>
</svg>
