<svg width="24" height="24" viewBox="0 0 24 24" fill="none" xmlns="http://www.w3.org/2000/svg">
<path d="M4.99078 18.3597C5.4855 19.2165 6.31386 19.1297 6.6662 18.9792L15.0668 14.1291C15.0076 14.6922 14.8371 16.0707 14.6289 17.0795C14.4207 18.0884 15.3482 18.5156 15.8379 18.6031C16.3871 18.6033 17.5486 18.3136 17.8006 17.1525C18.0527 15.9914 18.7829 13.6233 19.1165 12.5844C20.4001 9.55828 19.512 7.27822 18.9075 6.51646C16.6537 2.61287 12.5854 3.55471 10.833 4.51359L7.25039 6.582C6.92096 6.7722 6.13869 7.50947 6.63342 8.36636C7.12814 9.22325 7.83296 9.20774 8.1853 9.05721C7.85587 9.24741 7.0736 9.98468 7.56833 10.8416C8.06305 11.6984 8.89141 11.6116 9.24375 11.4611C8.91431 11.6513 8.13205 12.3886 8.62677 13.2454C9.1215 14.1023 9.94985 14.0155 10.3022 13.865L5.36068 16.718C5.03124 16.9081 4.49606 17.5028 4.99078 18.3597Z" stroke="#62656B"/>
</svg>
