<svg width="16" height="16" viewBox="0 0 16 16" fill="none" xmlns="http://www.w3.org/2000/svg">
<g clip-path="url(#clip0_681_6648)">
<path d="M12.0001 4.00004H10.6667C10.6667 2.52671 9.47342 1.33337 8.00008 1.33337C6.52675 1.33337 5.33342 2.52671 5.33342 4.00004H4.00008C3.26675 4.00004 2.66675 4.60004 2.66675 5.33337V13.3334C2.66675 14.0667 3.26675 14.6667 4.00008 14.6667H12.0001C12.7334 14.6667 13.3334 14.0667 13.3334 13.3334V5.33337C13.3334 4.60004 12.7334 4.00004 12.0001 4.00004ZM8.00008 2.66671C8.73342 2.66671 9.33342 3.26671 9.33342 4.00004H6.66675C6.66675 3.26671 7.26675 2.66671 8.00008 2.66671ZM12.0001 13.3334H4.00008V5.33337H5.33342V6.66671C5.33342 7.03337 5.63342 7.33337 6.00008 7.33337C6.36675 7.33337 6.66675 7.03337 6.66675 6.66671V5.33337H9.33342V6.66671C9.33342 7.03337 9.63342 7.33337 10.0001 7.33337C10.3667 7.33337 10.6667 7.03337 10.6667 6.66671V5.33337H12.0001V13.3334Z" fill="#393735"/>
</g>
<defs>
<clipPath id="clip0_681_6648">
<rect width="16" height="16" fill="white"/>
</clipPath>
</defs>
</svg>
