<svg width="236" height="92" viewBox="0 0 236 92" fill="none" xmlns="http://www.w3.org/2000/svg">
<rect width="236" height="92" rx="46" fill="#FEFDFC"/>
<path d="M102.684 54.8377C106.08 54.8377 108.832 52.0959 108.832 48.7138C108.832 45.3316 106.08 42.5898 102.684 42.5898C99.289 42.5898 96.5366 45.3316 96.5366 48.7138C96.5366 52.0959 99.289 54.8377 102.684 54.8377Z" fill="black"/>
<path d="M116.093 54.8377C119.488 54.8377 122.241 52.0959 122.241 48.7138C122.241 45.3316 119.488 42.5898 116.093 42.5898C112.698 42.5898 109.945 45.3316 109.945 48.7138C109.945 52.0959 112.698 54.8377 116.093 54.8377Z" fill="black"/>
<path d="M174.644 36.4678H171.958V54.4662H174.644V36.4678Z" fill="black"/>
<path fill-rule="evenodd" clip-rule="evenodd" d="M196.156 42.9512L193.077 50.7554H192.982L189.787 42.9512H186.892L191.685 53.8548L188.952 59.9244H191.753L199.139 42.9512H196.156Z" fill="black"/>
<path fill-rule="evenodd" clip-rule="evenodd" d="M181.243 42.5576C179.298 42.5576 177.285 43.4131 176.45 45.3141L178.833 46.3087C179.342 45.3141 180.293 44.9882 181.287 44.9882C182.676 44.9882 184.088 45.8233 184.112 47.3033V47.49C183.623 47.2117 182.584 46.7975 181.311 46.7975C178.738 46.7975 176.124 48.2097 176.124 50.8473C176.124 53.2575 178.232 54.8089 180.595 54.8089C182.397 54.8089 183.395 53.9976 184.02 53.0471H184.112V54.4355H186.705V47.5342C186.709 44.3398 184.322 42.5576 181.243 42.5576Z" fill="black"/>
<path fill-rule="evenodd" clip-rule="evenodd" d="M164.572 36.4678H158.136V54.4662H160.821V47.6463H164.572C167.549 47.6463 170.475 45.4907 170.475 42.0554C170.475 38.6234 167.549 36.4678 164.572 36.4678Z" fill="black"/>
<path fill-rule="evenodd" clip-rule="evenodd" d="M132.551 43.9564H132.459C131.855 43.2367 130.694 42.585 129.237 42.585C126.176 42.585 123.368 45.2769 123.368 48.7326C123.368 52.1646 126.176 54.8328 129.237 54.8328C130.697 54.8328 131.858 54.1844 132.459 53.4444H132.551V54.3236C132.551 56.6659 131.298 57.9185 129.282 57.9185C127.635 57.9185 126.613 56.7372 126.196 55.7392L123.854 56.7134C124.526 58.3361 126.311 60.3321 129.282 60.3321C132.439 60.3321 135.103 58.4753 135.103 53.9536V42.9584H132.551V43.9564Z" fill="black"/>
<path fill-rule="evenodd" clip-rule="evenodd" d="M136.96 54.4662H139.652V36.4678H136.96V54.4662Z" fill="black"/>
<path fill-rule="evenodd" clip-rule="evenodd" d="M151.968 46.4859C151.459 45.1179 149.904 42.5889 146.726 42.5889C143.573 42.5889 140.952 45.0737 140.952 48.7128C140.952 52.1448 143.549 54.8367 147.029 54.8367C149.836 54.8367 151.459 53.119 152.134 52.121L150.046 50.7292C149.347 51.751 148.4 52.4231 147.029 52.4231C145.661 52.4231 144.686 51.7951 144.062 50.5663L152.25 47.1784L151.968 46.4859Z" fill="black"/>
<path fill-rule="evenodd" clip-rule="evenodd" d="M86.7364 44.4688V47.0657H92.9554C92.7687 48.5288 92.2799 49.5947 91.5398 50.3348C90.6335 51.2411 89.2179 52.2358 86.7364 52.2358C82.9073 52.2358 79.9166 49.15 79.9166 45.3243C79.9166 41.4985 82.9107 38.4128 86.7364 38.4128C88.8004 38.4128 90.3076 39.2241 91.421 40.2663L93.2541 38.4332C91.6994 36.9497 89.6354 35.8125 86.7364 35.8125C81.4951 35.8125 77.0889 40.083 77.0889 45.3243C77.0889 50.5656 81.4951 54.8327 86.7364 54.8327C89.5676 54.8327 91.6994 53.9059 93.3696 52.1645C95.0838 50.4468 95.6202 48.0366 95.6202 46.0881C95.6202 45.4872 95.5761 44.9305 95.481 44.4654L86.7364 44.4688Z" fill="black"/>
<path fill-rule="evenodd" clip-rule="evenodd" d="M53.7574 45.5005L36.3191 28.0962C36.1188 28.5002 36 28.9958 36 29.5966V61.4112C36 62.0188 36.1222 62.5246 36.3293 62.9286L53.7574 45.5005Z" fill="#1F8EED"/>
<path fill-rule="evenodd" clip-rule="evenodd" d="M36.3701 27.985C36.3767 27.9681 36.3866 27.9545 36.3965 27.9375C36.3866 27.9545 36.38 27.9715 36.3701 27.985Z" fill="black"/>
<path fill-rule="evenodd" clip-rule="evenodd" d="M54.7656 44.4926L60.1359 39.1223L39.6595 27.4888C39.079 27.1562 38.5325 27 38.0436 27C37.7958 27 37.5684 27.0441 37.3579 27.1222L54.7656 44.4926Z" fill="#45A34D"/>
<path fill-rule="evenodd" clip-rule="evenodd" d="M67.7095 43.4266L61.4329 39.8589L55.7842 45.5076L61.4329 51.1427L67.7095 47.5749C69.7192 46.4377 69.7192 44.5672 67.7095 43.4266Z" fill="#FEB82E"/>
<path fill-rule="evenodd" clip-rule="evenodd" d="M54.7791 46.5195L37.4087 63.8967C38.0299 64.1072 38.8073 64.0053 39.6593 63.5233L60.1494 51.8763L54.7791 46.5195Z" fill="#F13732"/>
<path fill-rule="evenodd" clip-rule="evenodd" d="M36.353 62.9839C36.4345 63.1333 36.5262 63.269 36.6314 63.3845C36.5262 63.2622 36.4277 63.1333 36.353 62.9839Z" fill="black"/>
<path d="M102.684 45.0029C100.831 45.0029 99.2285 46.5101 99.2285 48.7133C99.2285 50.8926 100.827 52.427 102.684 52.427C104.541 52.427 106.14 50.896 106.14 48.7133C106.14 46.5101 104.541 45.0029 102.684 45.0029Z" fill="white"/>
<path d="M119.549 48.7133C119.549 46.5101 117.95 45.0029 116.093 45.0029C114.24 45.0029 112.638 46.5101 112.638 48.7133C112.638 50.8926 114.237 52.427 116.093 52.427C117.95 52.427 119.549 50.8926 119.549 48.7133Z" fill="white"/>
<path fill-rule="evenodd" clip-rule="evenodd" d="M129.468 52.4256C127.614 52.4256 126.06 50.8708 126.06 48.739C126.06 46.58 127.614 45.0049 129.471 45.0049C131.301 45.0049 132.74 46.5834 132.74 48.739C132.737 50.8708 131.298 52.4222 129.468 52.4256Z" fill="#FBFBFB"/>
<path fill-rule="evenodd" clip-rule="evenodd" d="M164.64 45.1407H160.817V38.9727H164.64C166.649 38.9727 167.79 40.636 167.79 42.055C167.787 43.4502 166.646 45.1407 164.64 45.1407Z" fill="white"/>
<path fill-rule="evenodd" clip-rule="evenodd" d="M143.617 48.5301C143.549 46.1641 145.45 44.959 146.822 44.959C147.887 44.959 148.794 45.4953 149.093 46.2591L143.617 48.5301Z" fill="white"/>
<path fill-rule="evenodd" clip-rule="evenodd" d="M180.917 52.4216C180.038 52.4216 178.809 51.9803 178.809 50.894C178.809 49.5056 180.337 48.9727 181.657 48.9727C182.835 48.9727 183.395 49.2273 184.112 49.5735C183.904 51.2403 182.469 52.4216 180.917 52.4216Z" fill="#FBFBFB"/>
</svg>
