<svg width="236" height="92" viewBox="0 0 236 92" fill="none" xmlns="http://www.w3.org/2000/svg">
<rect width="236" height="92" rx="46" fill="#FEFDFC"/>
<path d="M67.0551 44.1797C67.0935 41.2979 68.5985 38.6357 71.044 37.1254C69.493 34.9024 66.9898 33.5423 64.2871 33.4576C61.4422 33.1571 58.6895 35.1643 57.2383 35.1643C55.7602 35.1643 53.5296 33.4846 51.1301 33.5346C47.9705 33.6387 45.0949 35.3994 43.5554 38.1695C40.2806 43.8599 42.7223 52.2204 45.8589 56.8205C47.4291 59.0744 49.2643 61.5863 51.6638 61.4977C54.0134 61.4014 54.8887 59.9952 57.7259 59.9952C60.5323 59.9952 61.3577 61.4977 63.8072 61.4399C66.3257 61.4014 67.9151 59.1784 69.4277 56.9053C70.5565 55.2987 71.4241 53.5264 72 51.6502C69.0054 50.3826 67.059 47.4391 67.0551 44.1797ZM62.4327 30.4332C63.8072 28.7765 64.4829 26.6498 64.3216 24.5C62.2216 24.7196 60.2828 25.729 58.8891 27.3202C57.5147 28.8921 56.816 30.9456 56.9542 33.0299C59.0773 33.0531 61.0967 32.0937 62.4327 30.4332Z" fill="#010202"/>
<path d="M79.5195 53.5L86.6289 33.7031H90.1016L97.2383 53.5H94.0391L92.2344 48.2773H84.5234L82.7188 53.5H79.5195ZM91.3594 45.7617L88.4336 37.3125H88.2969L85.3848 45.7617H91.3594ZM98.9478 38.6523H101.792V41.0586H102.038C102.293 40.612 102.571 40.2064 102.872 39.8418C103.182 39.4772 103.619 39.1582 104.184 38.8848C104.758 38.6022 105.465 38.4609 106.303 38.4609C107.506 38.4609 108.577 38.7663 109.516 39.377C110.464 39.9876 111.202 40.8717 111.731 42.0293C112.269 43.1777 112.538 44.5404 112.538 46.1172C112.538 47.6758 112.273 49.0384 111.745 50.2051C111.216 51.3626 110.482 52.2513 109.544 52.8711C108.605 53.4818 107.534 53.7917 106.331 53.8008C105.155 53.7917 104.243 53.5319 103.596 53.0215C102.949 52.5111 102.43 51.8958 102.038 51.1758H101.874V59.0781H98.9478V38.6523ZM101.819 46.0625C101.819 47.1107 101.969 48.0312 102.27 48.8242C102.571 49.6081 103.008 50.2188 103.583 50.6562C104.166 51.0938 104.863 51.3125 105.674 51.3125C106.504 51.3125 107.21 51.0846 107.794 50.6289C108.386 50.1732 108.833 49.5534 109.133 48.7695C109.434 47.9766 109.585 47.0742 109.585 46.0625C109.585 45.069 109.434 44.1895 109.133 43.4238C108.842 42.6491 108.404 42.043 107.821 41.6055C107.238 41.168 106.522 40.9492 105.674 40.9492C104.854 40.9492 104.152 41.1589 103.569 41.5781C102.995 41.9883 102.557 42.5807 102.256 43.3555C101.965 44.1211 101.819 45.0234 101.819 46.0625ZM114.876 38.6523H117.72V41.0586H117.966C118.221 40.612 118.499 40.2064 118.8 39.8418C119.11 39.4772 119.547 39.1582 120.112 38.8848C120.687 38.6022 121.393 38.4609 122.232 38.4609C123.435 38.4609 124.506 38.7663 125.444 39.377C126.392 39.9876 127.131 40.8717 127.659 42.0293C128.197 43.1777 128.466 44.5404 128.466 46.1172C128.466 47.6758 128.202 49.0384 127.673 50.2051C127.144 51.3626 126.411 52.2513 125.472 52.8711C124.533 53.4818 123.462 53.7917 122.259 53.8008C121.083 53.7917 120.172 53.5319 119.525 53.0215C118.877 52.5111 118.358 51.8958 117.966 51.1758H117.802V59.0781H114.876V38.6523ZM117.747 46.0625C117.747 47.1107 117.898 48.0312 118.198 48.8242C118.499 49.6081 118.937 50.2188 119.511 50.6562C120.094 51.0938 120.791 51.3125 121.603 51.3125C122.432 51.3125 123.138 51.0846 123.722 50.6289C124.314 50.1732 124.761 49.5534 125.062 48.7695C125.362 47.9766 125.513 47.0742 125.513 46.0625C125.513 45.069 125.362 44.1895 125.062 43.4238C124.77 42.6491 124.332 42.043 123.749 41.6055C123.166 41.168 122.45 40.9492 121.603 40.9492C120.782 40.9492 120.081 41.1589 119.497 41.5781C118.923 41.9883 118.485 42.5807 118.185 43.3555C117.893 44.1211 117.747 45.0234 117.747 46.0625ZM145.42 42.6992C145.283 42.0885 144.974 41.6146 144.49 41.2773C144.017 40.931 143.388 40.7578 142.604 40.7578C142.057 40.7578 141.569 40.8444 141.141 41.0176C140.712 41.1908 140.375 41.4277 140.129 41.7285C139.883 42.0293 139.76 42.3665 139.76 42.7402C139.76 43.1868 139.942 43.5697 140.307 43.8887C140.681 44.2077 141.273 44.4583 142.084 44.6406L144.436 45.1875C145.803 45.4974 146.819 45.985 147.485 46.6504C148.159 47.3066 148.501 48.1589 148.51 49.207C148.501 50.1003 148.25 50.8978 147.758 51.5996C147.275 52.2923 146.578 52.8346 145.666 53.2266C144.755 53.6094 143.679 53.8008 142.44 53.8008C140.671 53.8008 139.268 53.4271 138.229 52.6797C137.19 51.9232 136.579 50.8477 136.397 49.4531H139.377C139.642 50.7839 140.635 51.4492 142.358 51.4492C143.324 51.4492 144.089 51.2715 144.655 50.916C145.229 50.5514 145.52 50.0547 145.53 49.4258C145.52 48.9427 145.329 48.5462 144.955 48.2363C144.591 47.9173 144.017 47.6667 143.233 47.4844L140.908 46.9922C139.578 46.7005 138.566 46.2083 137.873 45.5156C137.181 44.8138 136.834 43.9479 136.834 42.918C136.834 42.043 137.071 41.2682 137.545 40.5938C138.028 39.9193 138.703 39.3952 139.569 39.0215C140.444 38.6478 141.446 38.4609 142.576 38.4609C143.661 38.4609 144.614 38.6341 145.434 38.9805C146.254 39.3268 146.901 39.819 147.375 40.457C147.849 41.0951 148.136 41.8424 148.237 42.6992H145.42ZM157.739 40.9766H154.704V49.125C154.713 49.8906 154.873 50.4147 155.182 50.6973C155.492 50.9707 155.925 51.112 156.481 51.1211C156.919 51.1211 157.411 51.0938 157.958 51.0391V53.582C157.429 53.6549 156.818 53.6914 156.126 53.6914C155.333 53.6914 154.608 53.5456 153.952 53.2539C153.296 52.9622 152.772 52.5202 152.38 51.9277C151.988 51.3262 151.796 50.5924 151.805 49.7266V40.9766H149.618V38.6523H151.805V35.0977H154.704V38.6523H157.739V40.9766ZM166.148 53.8008C164.762 53.8008 163.541 53.4818 162.484 52.8438C161.436 52.2057 160.624 51.3125 160.05 50.1641C159.485 49.0065 159.202 47.6667 159.202 46.1445C159.202 44.6224 159.485 43.2826 160.05 42.125C160.624 40.9583 161.436 40.056 162.484 39.418C163.541 38.7799 164.762 38.4609 166.148 38.4609C167.524 38.4609 168.736 38.7799 169.785 39.418C170.833 40.056 171.639 40.9583 172.204 42.125C172.779 43.2826 173.066 44.6224 173.066 46.1445C173.066 47.6667 172.779 49.0065 172.204 50.1641C171.639 51.3125 170.833 52.2057 169.785 52.8438C168.736 53.4818 167.524 53.8008 166.148 53.8008ZM162.128 46.1445C162.128 47.1198 162.279 48.0039 162.579 48.7969C162.88 49.5807 163.331 50.2051 163.933 50.6699C164.535 51.1348 165.273 51.3672 166.148 51.3672C167.005 51.3672 167.729 51.1348 168.322 50.6699C168.923 50.2051 169.37 49.5807 169.661 48.7969C169.962 48.0039 170.113 47.1198 170.113 46.1445C170.113 45.1693 169.962 44.2852 169.661 43.4922C169.37 42.6901 168.923 42.0521 168.322 41.5781C167.729 41.1042 167.005 40.8672 166.148 40.8672C165.273 40.8672 164.535 41.1042 163.933 41.5781C163.331 42.0521 162.88 42.6901 162.579 43.4922C162.279 44.2852 162.128 45.1693 162.128 46.1445ZM175.377 38.6523H178.193V41.0039H178.357C178.631 40.2201 179.105 39.5957 179.779 39.1309C180.463 38.666 181.233 38.4336 182.09 38.4336C182.518 38.4336 182.942 38.4518 183.361 38.4883V41.2773C183.197 41.2409 182.96 41.2044 182.65 41.168C182.35 41.1315 182.067 41.1133 181.803 41.1133C181.137 41.1133 180.54 41.2591 180.012 41.5508C179.483 41.8333 179.064 42.2298 178.754 42.7402C178.453 43.2415 178.303 43.8112 178.303 44.4492V53.5H175.377V38.6523ZM190.895 53.8008C189.455 53.8008 188.202 53.4863 187.135 52.8574C186.069 52.2285 185.253 51.3398 184.688 50.1914C184.123 49.043 183.84 47.7031 183.84 46.1719C183.84 44.6589 184.123 43.319 184.688 42.1523C185.253 40.9857 186.055 40.0788 187.094 39.4316C188.133 38.7845 189.336 38.4609 190.704 38.4609C191.898 38.4609 192.991 38.7207 193.985 39.2402C194.978 39.7598 195.776 40.5801 196.377 41.7012C196.988 42.8132 197.293 44.2214 197.293 45.9258V46.9648H186.739C186.766 47.8945 186.957 48.6921 187.313 49.3574C187.668 50.0228 188.156 50.5286 188.776 50.875C189.396 51.2214 190.111 51.3945 190.922 51.3945C191.706 51.3945 192.372 51.2487 192.918 50.957C193.474 50.6562 193.885 50.2643 194.149 49.7812H197.102C196.883 50.5833 196.491 51.2897 195.926 51.9004C195.361 52.502 194.65 52.9714 193.793 53.3086C192.937 53.6367 191.971 53.8008 190.895 53.8008ZM194.422 44.7773C194.422 44.0299 194.267 43.36 193.957 42.7676C193.657 42.166 193.224 41.7012 192.659 41.373C192.103 41.0358 191.46 40.8672 190.731 40.8672C189.974 40.8672 189.3 41.0449 188.707 41.4004C188.124 41.7467 187.664 42.2207 187.327 42.8223C186.989 43.4238 186.798 44.0755 186.752 44.7773H194.422Z" fill="#010202"/>
</svg>
