<svg width="32" height="32" viewBox="0 0 32 32" fill="none" xmlns="http://www.w3.org/2000/svg">
<g clip-path="url(#clip0_453_730)">
<mask id="mask0_453_730" style="mask-type:luminance" maskUnits="userSpaceOnUse" x="2" y="2" width="28" height="28">
<path d="M2.66699 2.71875H29.2206V29.2724H2.66699V2.71875Z" fill="white"/>
</mask>
<g mask="url(#mask0_453_730)">
<path fill-rule="evenodd" clip-rule="evenodd" d="M15.9438 2.71875C12.3374 2.71875 11.8862 2.73475 10.4702 2.79875C9.05579 2.86275 8.09099 3.08675 7.24619 3.41635C6.37419 3.75555 5.63339 4.20995 4.89419 4.94755C4.15819 5.68515 3.70379 6.42595 3.36459 7.29955C3.03499 8.14275 2.81099 9.10755 2.74699 10.5219C2.68299 11.938 2.66699 12.3892 2.66699 15.9956C2.66699 19.602 2.68299 20.0532 2.74699 21.4692C2.81099 22.882 3.03499 23.8484 3.36459 24.6915C3.70379 25.5651 4.15659 26.306 4.89579 27.0436C5.63339 27.7812 6.37419 28.2356 7.24779 28.5748C8.09099 28.9028 9.05579 29.1284 10.4702 29.1924C11.8862 29.2564 12.3374 29.2724 15.9422 29.2724C19.5486 29.2724 20.0014 29.2564 21.4174 29.1924C22.8302 29.1284 23.795 28.9044 24.6398 28.5748C25.5134 28.2356 26.2542 27.7812 26.9918 27.0436C27.7294 26.306 28.1838 25.5651 28.523 24.6915C28.851 23.8484 29.075 22.8836 29.1406 21.4692C29.2046 20.0532 29.2206 19.602 29.2206 15.9956C29.2206 12.3892 29.2046 11.938 29.1406 10.5219C29.0766 9.10915 28.8526 8.14275 28.523 7.29955C28.1838 6.42595 27.7294 5.68515 26.9918 4.94755C26.2542 4.20995 25.5134 3.75555 24.6398 3.41635C23.795 3.08835 22.8318 2.86275 21.4174 2.79875C20.0014 2.73475 19.5486 2.71875 15.9438 2.71875ZM15.9438 5.11075C19.4878 5.11075 19.9086 5.12515 21.3086 5.18915C22.603 5.24835 23.3054 5.46435 23.7726 5.64515C24.3934 5.88675 24.835 6.17315 25.3006 6.63875C25.7646 7.10275 26.0526 7.54595 26.2926 8.16515C26.475 8.63395 26.6926 9.33635 26.7502 10.6307C26.8142 12.0307 26.827 12.45 26.827 15.9956C26.827 19.5412 26.8142 19.9604 26.7502 21.3603C26.691 22.6564 26.475 23.3572 26.2926 23.8244C26.0526 24.4452 25.7646 24.8883 25.3006 25.3524C24.8366 25.8164 24.3934 26.1043 23.7742 26.3444C23.3054 26.5268 22.603 26.7444 21.3086 26.802C19.9086 26.8659 19.4894 26.8804 15.9438 26.8804C12.3982 26.8804 11.979 26.8659 10.579 26.802C9.28299 26.7428 8.58059 26.5268 8.11339 26.346C7.49419 26.106 7.05099 25.8179 6.58699 25.3524C6.12299 24.8883 5.83499 24.4451 5.59499 23.8259C5.41259 23.3571 5.19499 22.6548 5.13579 21.3603C5.07179 19.9604 5.05899 19.5412 5.05899 15.9956C5.05899 12.45 5.07339 12.0307 5.13579 10.6307C5.19499 9.33635 5.41259 8.63395 5.59339 8.16675C5.83339 7.54595 6.12139 7.10275 6.58539 6.63875C7.05099 6.17475 7.49419 5.88675 8.11339 5.64675C8.58059 5.46435 9.28459 5.24675 10.5774 5.18915C11.979 5.12515 12.3982 5.11075 15.9438 5.11075Z" fill="white"/>
</g>
<path fill-rule="evenodd" clip-rule="evenodd" d="M15.9425 20.421C13.4993 20.421 11.5185 18.4402 11.5185 15.9954C11.5185 13.5522 13.4993 11.5698 15.9425 11.5698C18.3873 11.5698 20.3681 13.5522 20.3681 15.9954C20.3681 18.4402 18.3873 20.421 15.9425 20.421ZM15.9425 9.17783C12.1777 9.17783 9.12646 12.2306 9.12646 15.9954C9.12646 19.7618 12.1777 22.813 15.9425 22.813C19.7089 22.813 22.7601 19.7618 22.7601 15.997C22.7601 12.2306 19.7089 9.17783 15.9441 9.17783M24.6241 8.90903C24.6241 9.78903 23.9105 10.5026 23.0305 10.5026C22.1505 10.5026 21.4369 9.78903 21.4369 8.90903C21.4369 8.02903 22.1505 7.31543 23.0305 7.31543C23.9105 7.31543 24.6241 8.02903 24.6241 8.90903Z" fill="white"/>
</g>
<defs>
<clipPath id="clip0_453_730">
<rect width="32" height="32" fill="white"/>
</clipPath>
</defs>
</svg>
