<svg width="127" height="14" viewBox="0 0 127 14" fill="none" xmlns="http://www.w3.org/2000/svg">
<path d="M0 13.1586V0H2.92742V13.1586H0ZM1.39 9.28729V6.9607H4.88605C5.75655 6.9607 6.45857 6.76364 6.9921 6.36952C7.53968 5.97539 7.81347 5.40328 7.81347 4.65318C7.81347 3.87765 7.53968 3.29918 6.9921 2.91777C6.45857 2.53637 5.75655 2.34566 4.88605 2.34566H1.39V0H5.13878C6.20585 0 7.1676 0.184352 8.02407 0.553043C8.88054 0.921734 9.56149 1.44935 10.0669 2.13589C10.5724 2.82242 10.8251 3.66152 10.8251 4.65318C10.8251 5.61942 10.5724 6.45215 10.0669 7.1514C9.56149 7.83794 8.88054 8.36556 8.02407 8.73425C7.1676 9.10294 6.20585 9.28729 5.13878 9.28729H1.39ZM10.6023 13.1586L15.9939 0H17.5313L17.6998 2.57451L13.6562 13.1586H10.6023ZM13.9089 10.2027V8.04771H20.9853V10.2027H13.9089ZM16.9838 2.57451L17.068 0H18.7739L24.1654 13.1586H21.0274L16.9838 2.57451ZM23.5909 0H26.6868L29.7616 10.4124L29.7405 13.1586H28.0136L23.5909 0ZM29.0666 10.4124L32.3731 0H34.1422V2.61265L30.7093 13.1586H29.1087L29.0666 10.4124ZM32.9628 2.61265V0H34.8161L38.1226 10.4124L38.0805 13.1586H36.3746L32.9628 2.61265ZM37.4276 10.4124L40.4814 0H43.4931L39.0914 13.1586H37.4698L37.4276 10.4124ZM46.5327 13.1586V0H49.4601V13.1586H46.5327ZM52.9284 13.1586V0H55.6242V13.1586H52.9284ZM54.0236 0H56.8457L64.0905 13.1586H61.2684L54.0236 0ZM62.3214 13.1586V0H65.0382V13.1586H62.3214ZM68.3063 13.1586V0H71.2338V13.1586H68.3063ZM69.6963 7.68538V5.33972H78.8787V7.68538H69.6963ZM77.3413 13.1586V0H80.2687V13.1586H77.3413ZM83.0666 13.1586L88.4581 0H89.9955L90.164 2.57451L86.1204 13.1586H83.0666ZM86.3731 10.2027V8.04771H93.4495V10.2027H86.3731ZM89.448 2.57451L89.5322 0H91.2381L96.6296 13.1586H93.4916L89.448 2.57451ZM99.4317 13.1586V0H102.127V13.1586H99.4317ZM100.527 0H103.349L110.594 13.1586H107.772L100.527 0ZM108.825 13.1586V0H111.542V13.1586H108.825ZM114.789 13.1586V0H117.717V13.1586H114.789ZM116.179 13.1586V10.8129H119.78C120.595 10.8129 121.311 10.6604 121.929 10.3552C122.56 10.0374 123.052 9.56063 123.403 8.92495C123.754 8.28928 123.929 7.50739 123.929 6.57929C123.929 5.63849 123.754 4.8566 123.403 4.23363C123.052 3.59796 122.56 3.12755 121.929 2.82242C121.311 2.50458 120.595 2.34566 119.78 2.34566H116.179V0H120.033C121.339 0 122.511 0.260634 123.55 0.781888C124.589 1.29044 125.411 2.03418 126.014 3.01313C126.632 3.99207 126.941 5.1808 126.941 6.57929C126.941 7.96508 126.632 9.1538 126.014 10.1455C125.411 11.1244 124.589 11.8745 123.55 12.3958C122.511 12.9043 121.339 13.1586 120.033 13.1586H116.179Z" fill="#F29707"/>
</svg>
