<svg width="124" height="124" viewBox="0 0 124 124" fill="none" xmlns="http://www.w3.org/2000/svg">
<g filter="url(#filter0_d_681_6298)">
<rect x="12" y="8" width="100" height="100" rx="8" fill="white"/>
<path fill-rule="evenodd" clip-rule="evenodd" d="M32.501 41.0497C37.9952 26.8242 70.4611 11.1271 92.438 41.0497C93.2705 42.521 93.7366 45.758 88.9417 46.9352C84.1467 48.1124 80.9501 47.0988 79.9511 46.4448C76.6213 44.4827 66.765 40.2643 53.9784 39.0871C52.813 39.0871 50.7818 39.6757 51.9805 42.0302C53.1793 44.3846 56.1428 45.3003 57.4747 45.4638C62.303 46.6083 72.8586 49.8784 76.4548 53.8025C80.4767 58.191 78.5013 61.4017 77.683 62.7318C77.5867 62.8884 77.5064 63.0189 77.4538 63.1222C76.9543 64.1033 71.9595 69.4989 64.4674 72.9325C58.8757 75.4951 55.2316 78.0577 53.3273 79.3968C52.6801 79.852 52.2339 80.1658 51.9805 80.2902C50.9816 80.7807 50.9816 82.2522 51.481 82.7427C51.9805 83.2332 53.4789 83.2332 55.9763 82.2522C56.8088 81.9252 59.0287 80.8352 61.8035 79.4727L61.8036 79.4726C67.3533 76.7476 75.1229 72.9325 78.4527 71.9515C83.4475 70.4799 86.9438 68.0274 87.9427 67.0463C88.5279 66.4717 90.1414 65.2238 91.478 64.19L91.4781 64.1899L91.4782 64.1898C92.4233 63.4588 93.2301 62.8349 93.437 62.6317C93.7717 62.303 95.0039 61.9742 95.6299 63.1222C95.9379 63.6871 96.099 64.6095 95.9343 66.0653L95.9246 66.1525C95.6968 68.1956 94.7144 77.0085 79.9511 87.1574C66.4653 95.6149 39.1713 95.5077 28.5052 66.0653C27.9297 64.6523 27.4536 62.0183 29.398 61.3289C29.43 61.3128 29.4634 61.2962 29.4984 61.279C30.4974 60.7885 44.4884 58.2171 49.9826 60.6697C51.6476 61.3237 56.6756 63.8089 63.4685 68.5179C64.1344 69.0084 65.766 69.8913 66.9648 69.4989C68.1635 69.1065 68.4632 68.5179 68.4632 68.0274C68.4632 68.0133 68.4633 67.9991 68.4634 67.9845C68.4635 67.9718 68.4637 67.9588 68.4638 67.9456C68.4691 67.4513 68.4771 66.6887 66.9648 65.5748C66.4653 65.2478 65.6662 64.4957 66.4653 64.1033C67.2645 63.7108 67.7972 64.2668 67.9637 64.5938L69.4622 66.5558C69.9616 67.0463 71.1604 67.733 71.9595 66.5558C72.9585 65.0843 73.458 64.1033 69.9616 61.1602C69.9616 60.5062 70.3612 59.5905 71.9595 61.1602C73.2915 62.4682 73.5135 62.9042 73.6615 63.1949C73.7355 63.3402 73.7909 63.4492 73.9574 63.6127C74.4569 64.1033 75.4559 63.1222 75.4559 62.1412C75.4559 61.1602 73.4522 58.3359 72.459 57.7266C72.0354 57.4667 71.9595 56.255 72.9585 56.7456C73.7576 57.138 74.9564 58.5441 75.4559 59.1981C75.7888 59.6886 76.4548 60.3754 76.4548 59.1981C76.4548 57.7266 75.9553 54.293 70.4611 52.3309C67.9637 51.1864 60.7713 48.7993 51.9805 48.4068C43.1898 48.0144 37.6622 46.9353 35.9973 46.4448C34.4989 45.7911 31.7018 43.797 32.501 41.0497ZM42.0687 79.3855C41.3125 77.1474 45.8499 74.7227 49.631 72.8576L54.3574 70.9925C55.26 70.6363 56.0936 70.2802 56.8057 69.9759L56.8058 69.9759L56.8059 69.9758C57.958 69.4836 58.7917 69.1274 59.0838 69.1274C59.5564 69.1274 61.447 69.5937 61.9196 70.5262C62.2977 71.2723 60.1866 72.7022 59.0838 73.3239C53.7272 76.277 42.825 81.6236 42.0687 79.3855ZM44.9801 61.7502C41.1829 63.5007 34.1582 67.2886 36.4365 68.4343C38.7148 69.5801 45.613 66.0473 48.7773 64.1376C49.252 63.8194 50.2013 62.8623 49.252 62.2275C49.0443 62.0886 48.8807 61.9528 48.7321 61.8293L48.732 61.8293C48.0648 61.2752 47.6973 60.97 44.9801 61.7502ZM47.828 66.5247C43.5562 68.4343 35.4872 72.731 37.3858 74.6407C39.2844 76.5503 50.2013 70.6622 55.4224 67.4795C56.2135 66.843 56.7515 65.4744 52.5745 65.0925C52.0999 65.0925 50.4861 65.3789 47.828 66.5247Z" fill="#F29707"/>
</g>
<defs>
<filter id="filter0_d_681_6298" x="0" y="0" width="124" height="124" filterUnits="userSpaceOnUse" color-interpolation-filters="sRGB">
<feFlood flood-opacity="0" result="BackgroundImageFix"/>
<feColorMatrix in="SourceAlpha" type="matrix" values="0 0 0 0 0 0 0 0 0 0 0 0 0 0 0 0 0 0 127 0" result="hardAlpha"/>
<feOffset dy="4"/>
<feGaussianBlur stdDeviation="6"/>
<feComposite in2="hardAlpha" operator="out"/>
<feColorMatrix type="matrix" values="0 0 0 0 0.920947 0 0 0 0 0.87051 0 0 0 0 0.802351 0 0 0 1 0"/>
<feBlend mode="normal" in2="BackgroundImageFix" result="effect1_dropShadow_681_6298"/>
<feBlend mode="normal" in="SourceGraphic" in2="effect1_dropShadow_681_6298" result="shape"/>
</filter>
</defs>
</svg>
